PathFileType	4	(X/Y/Z)	/Users/visionmauri/Downloads/Videos/OAW06-top_Sports2D/OAW06-top_Sports2D_px_person00.trc
DataRate	CameraRate	NumFrames	NumMarkers	Units	OrigDataRate	OrigDataStartFrame	OrigNumFrames
30.0	30.0	6	22	m	30.0	797	2127
Frame#	Time	Hip			RHip			RKnee			RAnkle			RBigToe			RSmallToe			RHeel			LHip			LKnee			LAnkle			LBigToe			LSmallToe			LHeel			Neck			Head			Nose			RShoulder			RElbow			RWrist			LShoulder			LElbow			LWrist			
		X1	Y1	Z1	X2	Y2	Z2	X3	Y3	Z3	X4	Y4	Z4	X5	Y5	Z5	X6	Y6	Z6	X7	Y7	Z7	X8	Y8	Z8	X9	Y9	Z9	X10	Y10	Z10	X11	Y11	Z11	X12	Y12	Z12	X13	Y13	Z13	X14	Y14	Z14	X15	Y15	Z15	X16	Y16	Z16	X17	Y17	Z17	X18	Y18	Z18	X19	Y19	Z19	X20	Y20	Z20	X21	Y21	Z21	X22	Y22	Z22
797	26.579162746942618	640.599640665191	786.5790984066527	0.0	653.7407929348229	789.1450924039978	0.0	650.7208354231385	844.1279139725417	0.0	647.1305165457121	896.587688148729	0.0	643.7328319409015	905.1864752231439	0.0	654.9081871203111	907.5225186868782	0.0	646.4660343567595	907.4634019656538	0.0	627.4747237064842	787.9608328596007	0.0	625.6223645815494	843.6598328417189	0.0	624.6155301934074	888.784956854172	0.0	629.3379081386001	911.8737563959608	0.0	618.5444303763885	911.2382357434541	0.0	625.7863822856172	900.8883399731017	0.0	646.8812081428222	710.8537996688414	0.0	649.5155619089883	676.4701136233518	0.0	649.1712619526826	700.7972080108973	0.0	670.6463973221173	721.2589768432774	0.0	672.5035408983678	760.747875652012	0.0	675.0704697789323	795.7332761773773	0.0	622.9439315028658	718.8580693475777	0.0	612.2132935287784	756.2935302098463	0.0	605.1536842299183	789.8232364417446	0.0
798	26.612511759172158	641.4969979208793	785.4630081475831	0.0	654.3804263529732	787.996031896184	0.0	650.9737853146376	843.0737608637157	0.0	647.2580864651119	896.5096327667654	0.0	643.9201076300758	904.4325887425005	0.0	655.0742250143512	906.8653189562311	0.0	646.4986776050566	907.3491435657273	0.0	628.6291781783309	786.759025028474	0.0	626.5919406674441	841.1144133669046	0.0	625.618546426663	885.1139157483661	0.0	629.6952946589712	908.3009411045585	0.0	619.2781503428538	907.9824839137254	0.0	626.7815117213935	897.2286545884526	0.0	647.2591708586074	709.4381807894011	0.0	649.4241244000743	676.1886236656459	0.0	649.2480674212055	697.8601510905133	0.0	671.331543813228	720.4255285480103	0.0	673.3479090309482	759.5445280643147	0.0	675.6445013200507	794.0432948601148	0.0	623.3166480396125	718.014677815877	0.0	613.2161717673189	755.3772757477741	0.0	606.0283928837468	789.3632334604678	0.0
799	26.645860771401697	641.8413051053795	784.5086976361155	0.0	654.7204321802132	787.0215319719277	0.0	651.1166709505018	842.5725394552759	0.0	647.4960129255134	896.5468611809931	0.0	643.7980199954134	903.465287258926	0.0	655.2840414459463	906.1641676520321	0.0	646.5723499611142	907.3283219715063	0.0	629.2879599383247	785.905765447694	0.0	627.4681328547829	839.5541249329024	0.0	626.6898502920794	883.0426699916246	0.0	630.7561386090591	905.2708258700667	0.0	620.2535797829472	905.289287832305	0.0	627.7882687737892	894.9778946576181	0.0	647.4825557564817	708.5200774301957	0.0	649.4839469622717	676.1158506408261	0.0	649.2990433318415	696.6307092752307	0.0	671.5966036688001	719.4051714188477	0.0	673.7950400824897	758.5188774770644	0.0	676.1445704218484	792.6790220462815	0.0	623.7264368861797	717.1876593147899	0.0	613.9530918174672	754.7875703838107	0.0	607.02736439006	789.167852877225	0.0
800	26.679209783631237	642.0093760471111	783.7557769856074	0.0	654.8595420570136	786.243946963715	0.0	651.2382374686588	842.323429607426	0.0	647.705223987775	896.4863242363907	0.0	643.4982058819934	902.9276180665636	0.0	655.3556328257542	905.8989923580282	0.0	646.6494445267509	907.110952050864	0.0	629.5887569569688	785.2409171190619	0.0	628.0792768696233	838.8145450392894	0.0	627.7692504503416	883.0579467020984	0.0	631.9811093713103	902.6936063040613	0.0	621.5931533996416	903.1632536709001	0.0	628.9187436202456	894.8436462191864	0.0	647.5133068948269	708.1885065034551	0.0	649.9730132858734	676.266731124282	0.0	649.4837842271537	696.7603570493384	0.0	671.6008466580224	718.5250935377051	0.0	674.1542080242733	757.8093641316547	0.0	676.7694897476717	791.6337300974817	0.0	624.021795475025	716.5687893918458	0.0	614.3383236351988	754.5907497992544	0.0	607.8189632231444	789.1741096826062	0.0
801	26.712558795860776	642.3431186062741	783.4315512342864	0.0	654.8618940780731	785.8859676645675	0.0	651.3585240481353	841.8679210414476	0.0	647.8671948468317	896.0551910017941	0.0	643.309197021295	902.7648374644357	0.0	655.2147692520873	905.8664564180324	0.0	646.6168195539709	906.5022435044878	0.0	629.7586626979302	785.0168110379363	0.0	628.4384628671171	838.4627510849353	0.0	628.9107951781157	884.7424411037381	0.0	632.6977622131304	900.3595418654444	0.0	622.9222494353179	901.5253184256719	0.0	630.2108002588986	896.5415841016121	0.0	647.4551728642995	708.0693340973307	0.0	650.4674563812357	676.1668496377447	0.0	649.775741298224	696.7358800666509	0.0	671.5539668477738	718.0717662005598	0.0	674.6086419738468	757.2637530595338	0.0	677.3910431967483	790.6034954590834	0.0	624.0522661637767	716.2184607418349	0.0	614.3485938139577	754.6326318228884	0.0	607.8913036353109	789.280829051741	0.0
802	26.745907808090315	642.6536587711653	783.2634029924682	0.0	654.7633778084811	785.5336762639968	0.0	651.4667272632922	841.0993676791132	0.0	647.9384296892607	895.3389751861482	0.0	643.345987353192	902.2248157739621	0.0	655.078107052971	905.5725313461533	0.0	646.4389247672046	905.654622320018	0.0	629.8256737114733	785.0394338685016	0.0	628.7750705623552	838.3006010129931	0.0	629.9216777031421	886.9198343060498	0.0	632.9257618831297	898.3687563115373	0.0	623.5943271342574	900.1995583251478	0.0	631.2968097619936	898.6713128044436	0.0	647.4536397191015	707.8533945545164	0.0	650.4106425784568	675.3263676540935	0.0	649.8440625795585	696.0832084268378	0.0	671.4539323699925	717.8496661043664	0.0	674.9449927236667	756.7923494579862	0.0	677.8411774564895	789.3688220969137	0.0	623.9586697215387	716.0350664353923	0.0	614.1446101965463	754.6774585855273	0.0	607.5008505381777	789.1262173620853	0.0
